<?xml version="1.0" encoding="utf-8"?>
<!-- Generator: Adobe Illustrator 16.0.3, SVG Export Plug-In . SVG Version: 6.00 Build 0)  -->
<!DOCTYPE svg PUBLIC "-//W3C//DTD SVG 1.1//EN" "http://www.w3.org/Graphics/SVG/1.1/DTD/svg11.dtd">
<svg version="1.1" id="Layer_1" xmlns="http://www.w3.org/2000/svg" xmlns:xlink="http://www.w3.org/1999/xlink" x="0px" y="0px"
	 width="50px" height="50px" viewBox="0 0 50 50" enable-background="new 0 0 50 50" xml:space="preserve">
<g>
	<circle fill="#E51E26" cx="25" cy="25" r="25"/>
	<g>
		<path fill="#FFFFFF" d="M31.474,9.617v4.233c0,1.071,0.871,1.943,1.942,1.943h4.208v-0.025L31.474,9.617z"/>
		<path fill="#FFFFFF" d="M30.179,13.85V9.606H14.965c-1.43,0-2.589,1.16-2.589,2.59v25.608c0,1.43,1.16,2.59,2.589,2.59h20.069
			c1.431,0,2.59-1.16,2.59-2.59V17.086h-4.208C31.631,17.086,30.179,15.635,30.179,13.85z M26.501,33.452h-9.755
			c-0.358,0-0.647-0.29-0.647-0.648c0-0.357,0.289-0.646,0.647-0.646h9.755c0.357,0,0.647,0.289,0.647,0.646
			C27.148,33.162,26.858,33.452,26.501,33.452z M33.255,29.55H16.746c-0.358,0-0.647-0.29-0.647-0.648
			c0-0.357,0.289-0.646,0.647-0.646h16.509c0.357,0,0.646,0.289,0.646,0.646C33.901,29.26,33.612,29.55,33.255,29.55z M33.901,25
			c0,0.357-0.289,0.647-0.646,0.647H16.746c-0.358,0-0.647-0.29-0.647-0.647c0-0.358,0.289-0.648,0.647-0.648h16.509
			C33.612,24.352,33.901,24.642,33.901,25z"/>
	</g>
</g>
</svg>
