<?xml version="1.0" encoding="utf-8"?>
<!-- Generator: Adobe Illustrator 16.0.3, SVG Export Plug-In . SVG Version: 6.00 Build 0)  -->
<!DOCTYPE svg PUBLIC "-//W3C//DTD SVG 1.1//EN" "http://www.w3.org/Graphics/SVG/1.1/DTD/svg11.dtd">
<svg version="1.1" id="Layer_1" xmlns="http://www.w3.org/2000/svg" xmlns:xlink="http://www.w3.org/1999/xlink" x="0px" y="0px"
	 width="50px" height="50px" viewBox="0 0 50 50" enable-background="new 0 0 50 50" xml:space="preserve">
<g>
	<circle fill="#E51E26" cx="25" cy="25" r="25"/>
	<path fill="#FFFFFF" d="M34.845,28.664c-1.112-1.098-2.501-1.098-3.607,0c-0.843,0.836-1.687,1.672-2.517,2.523
		c-0.227,0.232-0.418,0.283-0.693,0.127c-0.546-0.297-1.127-0.539-1.651-0.865c-2.445-1.537-4.493-3.514-6.308-5.74
		c-0.9-1.106-1.701-2.29-2.261-3.622c-0.113-0.269-0.092-0.447,0.128-0.667c0.843-0.814,1.665-1.651,2.495-2.487
		c1.155-1.162,1.155-2.523-0.007-3.692c-0.659-0.666-1.318-1.318-1.977-1.984c-0.68-0.68-1.354-1.368-2.041-2.041
		c-1.113-1.084-2.502-1.084-3.607,0.007c-0.851,0.836-1.666,1.694-2.53,2.516c-0.801,0.758-1.205,1.687-1.29,2.771
		c-0.134,1.764,0.297,3.43,0.907,5.053c1.247,3.359,3.146,6.343,5.45,9.079c3.111,3.699,6.825,6.625,11.169,8.738
		c1.955,0.949,3.982,1.68,6.186,1.799c1.518,0.086,2.836-0.297,3.891-1.48c0.724-0.809,1.539-1.545,2.304-2.318
		c1.134-1.146,1.142-2.537,0.015-3.67C37.552,31.357,36.198,30.01,34.845,28.664z"/>
</g>
</svg>
